<svg width="18" height="18" viewBox="0 0 18 18" fill="none" xmlns="http://www.w3.org/2000/svg">
<path d="M16.7695 4.31071H14.8359V1.3711C14.8359 0.615062 14.2208 0 13.4647 0H11.6365C10.8805 0 10.2654 0.615062 10.2654 1.3711V4.31071H8.33177C7.7452 4.31071 7.25353 4.72334 7.13094 5.27347H5.23842C4.48237 5.27347 3.86729 5.88853 3.86729 6.64457V7.82635H1.2305C0.552003 7.82635 0 8.37835 0 9.05683V15.715C0 16.3338 0.459224 16.8471 1.05472 16.9327V17.4727C1.05472 17.7639 1.29083 18 1.58207 18C1.87332 18 2.10943 17.7639 2.10943 17.4727V16.9454H8.15598V17.4727C8.15598 17.7639 8.3921 18 8.68334 18C8.97458 18 9.2107 17.7639 9.2107 17.4727V16.9454H11.9535V17.4727C11.9535 17.7639 12.1896 18 12.4808 18C12.7721 18 13.0082 17.7639 13.0082 17.4727V16.9454H15.8906V17.4727C15.8906 17.7639 16.1267 18 16.4179 18C16.7092 18 16.9453 17.7639 16.9453 17.4727V16.9326C17.5408 16.8471 18 16.3337 18 15.7149V5.54118C18 4.8627 17.448 4.31071 16.7695 4.31071ZM10.2654 15.8907V5.3654H14.8359V15.8907H10.2654ZM11.3201 1.3711C11.3201 1.19662 11.4621 1.05469 11.6365 1.05469H13.4647C13.6392 1.05469 13.7811 1.19662 13.7811 1.3711V4.31071H11.3201V1.3711ZM8.15598 5.54118C8.15598 5.44426 8.23484 5.3654 8.33177 5.3654H9.2107V15.8907H8.33177C8.23484 15.8907 8.15598 15.8119 8.15598 15.7149V5.54118ZM7.10126 8.88105V15.7149C7.10126 15.7746 7.10576 15.8333 7.11403 15.8908H3.16418V8.88105H7.10126ZM4.92204 6.64457C4.92204 6.47009 5.06401 6.32816 5.23846 6.32816H7.1013V7.82635H4.92204V6.64457ZM1.05475 9.05683C1.05475 8.9599 1.13361 8.88105 1.23054 8.88105H2.10947V15.8908H1.23054C1.13361 15.8908 1.05475 15.8119 1.05475 15.715V9.05683ZM16.9453 15.7149C16.9453 15.8119 16.8664 15.8907 16.7695 15.8907H15.8906V5.3654H16.7695C16.8664 5.3654 16.9453 5.44426 16.9453 5.54118V15.7149Z" fill="black"/>
</svg>
