<svg width="10" height="10" viewBox="0 0 10 10" fill="none" xmlns="http://www.w3.org/2000/svg">
<path d="M0.3632 4.16965L9.07625 0.0922061C9.70126 -0.200561 10.2097 0.241251 9.91313 0.890661L5.85587 9.60979C5.58044 10.206 4.77534 10.0995 4.77004 9.42348L4.75945 5.32475C4.75945 5.27152 4.73826 5.25022 4.6853 5.25022L0.580364 5.23425C-0.060535 5.23425 -0.224732 4.44645 0.3632 4.16965ZM1.03058 4.60081L5.06666 4.58484C5.28382 4.58484 5.41094 4.72324 5.41094 4.9202L5.39505 8.99231C5.39505 9.01893 5.42683 9.02425 5.43743 8.99764L9.22456 0.826784C9.25104 0.773554 9.21397 0.746939 9.1663 0.768231L1.02529 4.55823C0.998803 4.56888 0.998803 4.60081 1.03058 4.60081Z" fill="white"/>
</svg>
