<svg width="22" height="18" viewBox="0 0 22 18" fill="none" xmlns="http://www.w3.org/2000/svg">
<path d="M-1.12054e-06 9C-1.10867e-06 8.8642 0.047387 8.75309 0.142163 8.65432L8.2574 0.148148C8.36403 0.0493839 8.4588 7.2354e-07 8.58912 7.34932e-07C8.86161 7.58754e-07 9.05116 0.209878 9.05116 0.469136C9.05116 0.604939 9.00377 0.740741 8.93269 0.814814L4.19386 5.75309L1.36241 8.60494L3.95692 8.53086L21.5498 8.53086C21.7986 8.53086 22 8.7284 22 9C22 9.27161 21.7986 9.46914 21.5498 9.46914L3.95692 9.46913L1.37426 9.40741L4.19386 12.2469L8.93269 17.1852C9.01562 17.2839 9.05116 17.4074 9.05116 17.5432C9.05116 17.7901 8.8616 18 8.58912 18C8.4588 18 8.34033 17.9506 8.15078 17.7531L0.142163 9.34568C0.0473869 9.24691 -1.13242e-06 9.1358 -1.12054e-06 9Z" fill="black"/>
</svg>
