<svg width="19" height="8" viewBox="0 0 19 8" fill="none" xmlns="http://www.w3.org/2000/svg">
<path d="M18.1561 3.71873L17.6615 3.38688L17.2857 2.34881C17.2202 2.16801 17.054 2.04305 16.8621 2.03046L11.6462 1.68839L10.1029 0.605334C9.32272 0.0578269 8.34343 -0.130034 7.41603 0.0899763L6.27682 0.360292C5.05596 0.649926 3.88319 1.11609 2.7982 1.7371C2.78305 1.73564 2.76775 1.73477 2.7522 1.73477H1.4518L1.01246 1.29543C0.823391 1.10636 0.51681 1.10636 0.327691 1.29543C0.13862 1.4845 0.13862 1.79108 0.327691 1.9802L0.908848 2.56136C0.999631 2.65214 1.12281 2.70317 1.25121 2.70317H1.34407C1.06131 2.91955 0.78698 3.1475 0.522378 3.38693C0.420943 3.47873 0.363036 3.60912 0.363036 3.74594V4.14597L0.0503544 4.7771C0.0172367 4.84391 0 4.91751 0 4.99207C0 5.59274 0.488679 6.08142 1.08935 6.08142H2.84488C3.0584 6.86995 3.77982 7.45183 4.63492 7.45183C5.49003 7.45183 6.2115 6.86995 6.42497 6.08142H12.4064C12.62 6.86995 13.3414 7.45183 14.1965 7.45183C15.0516 7.45183 15.7731 6.86995 15.9865 6.08142H17.1889C17.6748 6.08142 18.106 5.75479 18.2376 5.28708L18.4524 4.52363C18.5382 4.21869 18.4191 3.89522 18.1561 3.71873ZM17.3055 5.0248C17.2909 5.07675 17.243 5.11307 17.189 5.11307H15.9866C15.7731 4.32454 15.0516 3.74265 14.1965 3.74265C13.3414 3.74265 12.62 4.32454 12.4065 5.11307H6.42497C6.21145 4.32454 5.49003 3.74265 4.63492 3.74265C3.77982 3.74265 3.05835 4.32454 2.84488 5.11307H1.08935C1.04839 5.11307 1.01207 5.09259 0.990189 5.06136L1.28113 4.47424C1.31425 4.40743 1.33149 4.33383 1.33149 4.25927V3.96329C2.80871 2.67374 4.59135 1.75535 6.50031 1.3025L7.63953 1.03218C8.29786 0.875988 8.9929 1.00938 9.54665 1.39798L11.2009 2.55899C11.2736 2.60997 11.3588 2.63999 11.4474 2.6458L16.4828 2.97606L16.8048 3.86554C16.8399 3.96232 16.9048 4.04546 16.9903 4.10278L17.4736 4.42704L17.3055 5.0248ZM15.0828 5.59724C15.0828 6.08592 14.6852 6.48348 14.1965 6.48348C13.7079 6.48348 13.3103 6.08592 13.3103 5.59724C13.3103 5.10856 13.7079 4.71101 14.1965 4.71101C14.6852 4.71101 15.0828 5.10856 15.0828 5.59724ZM5.52116 5.59724C5.52116 6.08592 5.1236 6.48348 4.63492 6.48348C4.14625 6.48348 3.74869 6.08592 3.74869 5.59724C3.74869 5.10856 4.14625 4.71101 4.63492 4.71101C5.1236 4.71101 5.52116 5.10856 5.52116 5.59724Z" fill="black"/>
</svg>
