<svg width="19" height="19" viewBox="0 0 19 19" fill="none" xmlns="http://www.w3.org/2000/svg">
<path d="M18.1288 8.89386L12.0697 2.85623L13.6602 1.26753C13.9502 0.977798 13.9505 0.507745 13.6607 0.217711C13.371 -0.0723599 12.901 -0.0725826 12.6109 0.217117L3.65296 9.1653C2.40152 9.51446 1.48071 10.6647 1.48071 12.026C1.48071 12.436 1.81306 12.7684 2.22306 12.7684C2.63305 12.7684 2.9654 12.436 2.9654 12.026C2.9654 11.4499 3.29526 10.9494 3.77601 10.7034L10.0561 16.9619C10.6349 17.5401 11.3948 17.8291 12.1549 17.8291C12.915 17.8291 13.6753 17.5398 14.2536 16.9615L18.1304 13.0948C18.6913 12.5338 19.0002 11.7879 19 10.9946C18.9999 10.2011 18.6907 9.45537 18.1288 8.89386ZM17.0812 12.0442L13.2045 15.911C12.6259 16.4896 11.6842 16.4898 11.1048 15.9109L5.71675 10.5413H13.9521C14.3621 10.5413 14.6945 10.209 14.6945 9.799C14.6945 9.38901 14.3621 9.05666 13.9521 9.05666H5.86255L11.0193 3.90553L17.0801 9.94487C17.3607 10.2253 17.5153 10.5981 17.5154 10.9948C17.5154 11.3915 17.361 11.7644 17.0812 12.0442Z" fill="black"/>
<path d="M3.53048 14.8207C3.15274 14.2567 2.77919 13.8009 2.76345 13.7818C2.62244 13.6102 2.41199 13.5107 2.18992 13.5107C1.96784 13.5107 1.75739 13.6102 1.61638 13.7818C1.60064 13.8009 1.2271 14.2567 0.849354 14.8207C0.0880421 15.9574 0 16.5028 0 16.8142C0 18.0217 0.982419 19.0041 2.18992 19.0041C3.39741 19.0041 4.37983 18.0217 4.37983 16.8142C4.37983 16.5028 4.29179 15.9574 3.53048 14.8207ZM2.18992 17.5194C1.80104 17.5194 1.48469 17.2031 1.48465 16.816C1.4848 16.813 1.50418 16.5091 2.08922 15.6375C2.12288 15.5874 2.15651 15.5382 2.18992 15.4901C2.22329 15.5382 2.25695 15.5874 2.29062 15.6375C2.86549 16.494 2.89422 16.8023 2.89514 16.8155C2.8944 17.2038 2.57831 17.5194 2.18992 17.5194Z" fill="black"/>
</svg>
