<svg width="161" height="11" viewBox="0 0 161 11" fill="none" xmlns="http://www.w3.org/2000/svg">
<path d="M117 0V10.9536H119.43V6.84599H134.174V10.9536H136.628V0H134.198V4.4557H119.453V0H117ZM26.0778 0C24.7225 0 23.6242 1.09072 23.6009 2.43671V8.56329C23.6009 9.90928 24.7225 10.9768 26.0778 10.9768H41.5702C42.9255 10.9768 44.0004 9.88608 44.0004 8.56329V2.43671C44.0004 1.13713 42.9489 0.0464149 41.617 0.0232082L26.0778 0ZM46.9447 0V10.9536H49.3515V8.05275H62.8811C64.2131 8.05275 65.3113 9.16667 65.3113 10.4895V10.9304H67.7649V10.9072C67.7649 9.32911 66.8536 7.8903 65.4048 7.19409C66.7134 7.14768 67.7415 6.08017 67.7415 4.78059V2.4135C67.7415 1.06751 66.6433 0 65.288 0H46.9447ZM0 0.0232082V10.9768H2.43019V8.07595H18.3199C19.6752 8.07595 20.7734 6.98523 20.7734 5.66245V2.43671C20.7734 1.09072 19.6518 0.0232082 18.3199 0.0232082H0.0467346H0ZM96.6935 0.0232082C95.3382 0.0232082 94.2166 1.11392 94.2166 2.43671V8.56329C94.2166 9.88608 95.2914 11 96.6234 11H114.219V8.5865H96.9739C96.8103 8.5865 96.6701 8.47047 96.6701 8.28481V2.7616C96.6701 2.55274 96.857 2.43671 97.0674 2.43671H114.219V0L96.6935 0.0232082ZM139.479 0.0232082V10.9768H161V8.9346H141.932V6.54431H161V4.4789H141.932V2.08861H161V0.0232082H139.479ZM72.9524 0.0232082C71.6205 0.0696217 70.5456 1.13713 70.5456 2.48313V4.1076C70.5456 5.45359 71.6672 6.54431 73.0225 6.54431H88.4916C88.7019 6.54431 88.8888 6.70675 88.9122 6.91561V8.5865C88.9122 8.79536 88.7253 8.9346 88.4916 8.9346H70.8961V11H88.9122C90.2441 11 91.3424 9.88608 91.3424 8.56329V6.91561C91.3424 5.59282 90.2208 4.4789 88.8888 4.4789H73.3964C73.1861 4.50211 72.9991 4.33966 72.9991 4.1308V2.45992C72.9991 2.25106 73.1861 2.08861 73.3964 2.08861H90.9451V0.0464163L72.9524 0.0232082ZM49.3749 2.4135H64.8907C65.1244 2.43671 65.3113 2.62237 65.3113 2.83123V5.24473C65.3113 5.45359 65.1478 5.63924 64.9375 5.66245H49.3749V2.4135ZM2.43019 2.4135L17.9226 2.43671C18.1329 2.43671 18.3433 2.64557 18.3433 2.85443V5.24473C18.3433 5.45359 18.1797 5.63924 17.9694 5.66245H2.47692V2.4135H2.43019ZM26.475 2.43671H41.1964C41.4067 2.43671 41.617 2.62236 41.617 2.85443V8.16878C41.617 8.40085 41.4534 8.56329 41.2197 8.5865H26.3816C26.218 8.5865 26.0778 8.44726 26.0778 8.28481V2.7616C26.1012 2.55274 26.2881 2.4135 26.475 2.43671Z" fill="black"/>
</svg>
