<svg width="16" height="16" viewBox="0 0 16 16" fill="none" xmlns="http://www.w3.org/2000/svg">
<path d="M4.25 5C4.59518 5 4.875 4.72018 4.875 4.375C4.875 4.02982 4.59518 3.75 4.25 3.75C3.90482 3.75 3.625 4.02982 3.625 4.375C3.625 4.72018 3.90482 5 4.25 5Z" fill="black"/>
<path d="M8 6.25C8.34518 6.25 8.625 5.97018 8.625 5.625C8.625 5.27982 8.34518 5 8 5C7.65482 5 7.375 5.27982 7.375 5.625C7.375 5.97018 7.65482 6.25 8 6.25Z" fill="black"/>
<path d="M8 3.75C8.34518 3.75 8.625 3.47018 8.625 3.125C8.625 2.77982 8.34518 2.5 8 2.5C7.65482 2.5 7.375 2.77982 7.375 3.125C7.375 3.47018 7.65482 3.75 8 3.75Z" fill="black"/>
<path d="M11.75 5C12.0952 5 12.375 4.72018 12.375 4.375C12.375 4.02982 12.0952 3.75 11.75 3.75C11.4048 3.75 11.125 4.02982 11.125 4.375C11.125 4.72018 11.4048 5 11.75 5Z" fill="black"/>
<path d="M14.8488 2.64497C14.8488 2.64497 9.20288 0.240094 9.20138 0.239469C8.82012 0.0805625 8.41594 0 8 0C7.58406 0 7.17987 0.0805625 6.79862 0.239469C6.79712 0.240094 1.15122 2.64497 1.15122 2.64497C0.45175 2.93778 0 3.6165 0 4.375C0 5.1335 0.45175 5.81222 1.15122 6.10503C1.15122 6.10503 6.79712 8.50994 6.79862 8.51056C7.17991 8.66944 7.58409 8.75 8 8.75C8.41591 8.75 8.82009 8.66944 9.20138 8.51056C9.20288 8.50994 14.8483 6.10525 14.8483 6.10525C15.548 5.8125 16 5.13363 16 4.375C16 3.6165 15.5483 2.93778 14.8488 2.64497ZM14.3651 4.95241C14.3636 4.95303 8.71844 7.35763 8.71844 7.35763C8.49091 7.45209 8.24922 7.5 8 7.5C7.75078 7.5 7.50909 7.45209 7.28159 7.35763C7.28159 7.35763 1.63641 4.95306 1.63494 4.95241C1.40109 4.85497 1.25 4.62831 1.25 4.375C1.25 4.12169 1.40109 3.89503 1.63491 3.79759C1.63641 3.79697 7.28147 1.39244 7.28147 1.39244C7.50903 1.29791 7.75075 1.25 8 1.25C8.24922 1.25 8.49088 1.29791 8.71834 1.39237C8.71834 1.39237 14.3635 3.79697 14.365 3.79759C14.5989 3.89503 14.75 4.12169 14.75 4.375C14.75 4.62831 14.5989 4.85497 14.3651 4.95241Z" fill="black"/>
<path d="M15.2587 7.18139C14.918 7.23667 14.6866 7.5577 14.7419 7.89842C14.7473 7.93158 14.75 7.96573 14.75 7.99995C14.75 8.25326 14.5989 8.47992 14.3651 8.57736C14.3636 8.57798 8.71813 10.9827 8.71813 10.9827C8.49069 11.0771 8.24909 11.125 8 11.125C7.75091 11.125 7.50931 11.0771 7.28191 10.9827C7.28191 10.9827 1.63644 8.57798 1.63494 8.57736C1.40109 8.47992 1.25 8.25326 1.25 7.99995C1.25 7.96576 1.25272 7.93157 1.25812 7.89836C1.31328 7.55761 1.08175 7.23667 0.741031 7.18151C0.40025 7.12636 0.0793125 7.35786 0.0241875 7.69861C0.00815625 7.79767 0 7.89904 0 7.99995C0 8.75861 0.452 9.43745 1.15169 9.73017C1.15169 9.73017 6.79709 12.1349 6.79859 12.1355C7.17991 12.2944 7.58409 12.3749 8 12.3749C8.41591 12.3749 8.82009 12.2944 9.20138 12.1355C9.20288 12.1349 14.8483 9.7302 14.8483 9.7302C15.548 9.43745 16 8.75857 16 7.99995C16 7.89886 15.9918 7.79736 15.9758 7.6982C15.9205 7.35748 15.5992 7.12608 15.2587 7.18139Z" fill="black"/>
<path d="M15.2587 10.8065C14.918 10.8618 14.6866 11.1828 14.7419 11.5235C14.7473 11.5567 14.75 11.5908 14.75 11.6251C14.75 11.8784 14.5989 12.105 14.3651 12.2025C14.3636 12.2031 8.71813 14.6078 8.71813 14.6078C8.49069 14.7022 8.24909 14.7501 8 14.7501C7.75091 14.7501 7.50931 14.7022 7.28191 14.6078C7.28191 14.6078 1.63644 12.2031 1.63494 12.2025C1.40109 12.105 1.25 11.8784 1.25 11.6251C1.25 11.5909 1.25272 11.5567 1.25812 11.5235C1.31328 11.1827 1.08175 10.8618 0.741031 10.8066C0.40025 10.7515 0.0793125 10.983 0.0241875 11.3237C0.00815625 11.4228 0 11.5242 0 11.6251C0 12.3837 0.452 13.0626 1.15169 13.3553C1.15169 13.3553 6.79709 15.76 6.79859 15.7606C7.17991 15.9195 7.58409 16.0001 8 16.0001C8.41591 16.0001 8.82009 15.9195 9.20138 15.7606C9.20288 15.76 14.8483 13.3553 14.8483 13.3553C15.548 13.0626 16 12.3837 16 11.6251C16 11.524 15.9918 11.4225 15.9758 11.3233C15.9205 10.9826 15.5992 10.7512 15.2587 10.8065Z" fill="black"/>
</svg>
