<svg width="9" height="16" viewBox="0 0 9 16" fill="none" xmlns="http://www.w3.org/2000/svg">
<path d="M9 8.00509C9 8.13749 8.9495 8.23934 8.84848 8.331L0.686869 15.888C0.616162 15.9593 0.515152 16 0.393939 16C0.181818 16 0 15.837 0 15.6028C0 15.4806 0.040404 15.3991 0.111111 15.3278L8.0101 8.00509L0.111111 0.682368C0.040404 0.611076 0 0.519414 0 0.407384C0 0.173138 0.181818 0 0.393939 0C0.515152 0 0.616162 0.0407384 0.686869 0.122215L8.84848 7.67919C8.9495 7.77085 9 7.86251 9 8.00509Z" fill="#898C94"/>
</svg>
