<svg width="9" height="16" viewBox="0 0 9 16" fill="none" xmlns="http://www.w3.org/2000/svg">
<path d="M0 8.00509C0 8.13749 0.0505047 8.23934 0.151515 8.331L8.31313 15.888C8.38384 15.9593 8.48485 16 8.60606 16C8.81818 16 9 15.837 9 15.6028C9 15.4806 8.9596 15.3991 8.88889 15.3278L0.989899 8.00509L8.88889 0.682368C8.9596 0.611076 9 0.519414 9 0.407384C9 0.173138 8.81818 0 8.60606 0C8.48485 0 8.38384 0.0407384 8.31313 0.122215L0.151515 7.67919C0.0505047 7.77085 0 7.86251 0 8.00509Z" fill="#898C94"/>
</svg>
