<svg width="16" height="20" viewBox="0 0 16 20" fill="none" xmlns="http://www.w3.org/2000/svg">
<path d="M7.86719 13.582C7.78369 13.582 7.7002 13.5542 7.62598 13.4707L4.18408 10.0566C4.11914 9.9917 4.08203 9.92676 4.08203 9.83398C4.08203 9.65771 4.22119 9.51855 4.38818 9.51855C4.48096 9.51855 4.57373 9.56494 4.63867 9.62988L6.43848 11.4482L7.54248 12.5708L7.52393 11.272V0.343262C7.52393 0.157715 7.68164 0 7.86719 0C8.05273 0 8.21045 0.157715 8.21045 0.343262V11.272L8.18262 12.5615L9.27734 11.4482L11.0864 9.62988C11.1514 9.56494 11.2441 9.51855 11.3276 9.51855C11.4946 9.51855 11.6431 9.65771 11.6431 9.83398C11.6431 9.92676 11.606 9.9917 11.541 10.0566L8.1084 13.4707C8.03418 13.5542 7.95068 13.582 7.86719 13.582ZM2.50488 19.3804C0.862793 19.3804 0 18.5269 0 16.8848V7.10645C0 5.46436 0.862793 4.61084 2.50488 4.61084H6.021V5.29736H2.52344C1.31738 5.29736 0.686523 5.92822 0.686523 7.14355V16.8477C0.686523 18.063 1.31738 18.6938 2.52344 18.6938H13.2109C14.3706 18.6938 15.0386 18.063 15.0386 16.8477V7.14355C15.0386 5.92822 14.3706 5.29736 13.2109 5.29736H9.7041V4.61084H13.2295C14.8716 4.61084 15.7344 5.48291 15.7344 7.10645V16.8848C15.7344 18.5083 14.8716 19.3804 13.2295 19.3804H2.50488Z" fill="black"/>
</svg>
