<svg width="16" height="20" viewBox="0 0 16 20" fill="none" xmlns="http://www.w3.org/2000/svg">
<path d="M15.3619 15.426C15.1187 14.877 14.6764 14.4556 14.1163 14.2393C13.8458 14.1349 13.5652 14.0859 13.2883 14.0882V10.6401C13.2883 9.91715 13.4871 9.20875 13.8633 8.59144C14.1522 8.11734 14.3049 7.57332 14.3049 7.01816C14.3049 6.07156 13.8528 5.16738 13.0955 4.59941C12.7269 4.32289 12.44 3.95117 12.2659 3.52445L11.8405 2.48164C11.2257 0.974102 9.77633 0 8.14816 0C6.52004 0 5.0707 0.974102 4.45578 2.48164L4.03043 3.52441C3.85637 3.95113 3.56949 4.32285 3.20078 4.59938C2.44351 5.16734 1.99141 6.07156 1.99141 7.01813C1.99141 7.57328 2.1441 8.11734 2.43301 8.59141C2.80918 9.20875 3.00805 9.91715 3.00805 10.64V14.0882C2.73113 14.0859 2.45047 14.1349 2.18 14.2393C1.61992 14.4556 1.17754 14.877 0.934452 15.426C0.691327 15.975 0.676561 16.5857 0.89285 17.1458L1.19734 17.9344C1.43316 18.5451 1.8432 19.0636 2.38308 19.4339C2.92297 19.8043 3.55441 20 4.20906 20H12.0873C12.742 20 13.3734 19.8043 13.9132 19.434C14.4531 19.0637 14.8632 18.5452 15.099 17.9345L15.4035 17.1459C15.6198 16.5858 15.605 15.975 15.3619 15.426ZM11.1808 3.96703C11.435 4.59023 11.854 5.13309 12.3924 5.53688C12.8562 5.88469 13.133 6.43844 13.133 7.01813C13.133 7.35813 13.0395 7.69125 12.8626 7.9816C12.3745 8.78269 12.1164 9.70199 12.1164 10.6401V14.4295C11.8712 14.5826 11.6525 14.7844 11.4766 15.0311L11.2304 15.3762H10.9445V13.4308C10.9445 10.0315 10.7961 6.59086 10.5034 3.20465L10.4281 2.33418C10.5582 2.51426 10.6687 2.71156 10.7555 2.92418L11.1808 3.96703ZM6.68332 7.32238H9.61304C9.64597 7.95648 9.67387 8.59113 9.6966 9.22578H6.59976C6.6225 8.59113 6.65035 7.95648 6.68332 7.32238ZM6.56344 10.3976H9.73293C9.74941 11.0327 9.7607 11.6674 9.76687 12.301H6.52949C6.53562 11.6674 6.54695 11.0327 6.56344 10.3976ZM9.41293 4.24715C9.46246 4.88023 9.50691 5.51488 9.54629 6.15051H6.75008C6.78945 5.51488 6.8339 4.88023 6.88344 4.24715H9.41293ZM6.52367 13.4729H9.77261V15.3762H6.52367V13.4729ZM8.14816 1.17188C8.5048 1.17188 8.84922 1.23816 9.16773 1.36125L9.3159 3.07523H6.98043L7.12859 1.36125C7.44711 1.2382 7.79156 1.17188 8.14816 1.17188ZM3.43375 7.9816C3.25683 7.69125 3.16332 7.35813 3.16332 7.01813C3.16332 6.43844 3.44019 5.88469 3.90394 5.53688C4.44238 5.13305 4.86137 4.5902 5.11555 3.96699L5.5409 2.92422C5.62762 2.7116 5.7382 2.5143 5.86828 2.33422L5.79305 3.20461C5.50027 6.59102 5.35187 10.0316 5.35187 13.4309V15.3762H5.06597L4.8198 15.0311C4.6439 14.7844 4.42519 14.5826 4.18 14.4295V10.64C4.17992 9.70199 3.92191 8.78269 3.43375 7.9816ZM14.3103 16.7237L14.0058 17.5123C13.7019 18.2993 12.9309 18.8281 12.0873 18.8281H4.20906C3.36543 18.8281 2.59445 18.2994 2.29055 17.5123L1.98601 16.7237C1.8825 16.4557 1.88957 16.1633 2.00594 15.9005C2.1223 15.6378 2.33402 15.4361 2.60211 15.3325C2.72875 15.2836 2.85992 15.2601 2.98965 15.2601C3.32969 15.2601 3.65902 15.4218 3.86562 15.7115L4.46226 16.5481H11.8339L12.4306 15.7115C12.7161 15.3112 13.2355 15.1555 13.6941 15.3325C13.9622 15.436 14.1739 15.6377 14.2903 15.9005C14.4068 16.1633 14.4138 16.4557 14.3103 16.7237Z" fill="black"/>
</svg>
