<svg width="18" height="17" viewBox="0 0 18 17" fill="none" xmlns="http://www.w3.org/2000/svg">
<path d="M17.4727 10.2C17.7639 10.2 18 9.94633 18 9.63333C18 9.32034 17.7639 9.06667 17.4727 9.06667H15.8906V3.96667C15.8906 3.20905 15.4122 2.58748 14.8008 2.36141V1.7C14.8008 0.762639 14.0911 0 13.2188 0C12.3464 0 11.6367 0.762639 11.6367 1.7V2.26667H10.582V1.7C10.582 0.762639 9.87231 0 9 0C8.12769 0 7.41797 0.762639 7.41797 1.7V2.26667H6.36328V1.7C6.36328 0.762639 5.65356 0 4.78125 0C3.90894 0 3.19922 0.762639 3.19922 1.7V2.36141C2.58659 2.58793 2.10938 3.20978 2.10938 3.96667V6.8H1.05469V6.23333C1.05469 5.92034 0.818619 5.66667 0.527344 5.66667C0.236069 5.66667 0 5.92034 0 6.23333V10.7667C0 11.0797 0.236069 11.3333 0.527344 11.3333C0.818619 11.3333 1.05469 11.0797 1.05469 10.7667V10.2H2.10938V13.0333C2.10938 13.9728 2.85136 14.7333 3.72656 14.7333H8.47266V15.3C8.47266 16.2374 9.18237 17 10.0547 17H14.2734C15.1474 17 15.8906 16.2411 15.8906 15.3V14.7333H17.4727C17.7639 14.7333 18 14.4797 18 14.1667V11.9C18 11.587 17.7639 11.3333 17.4727 11.3333H15.8906V10.2H17.4727ZM12.6914 1.7C12.6914 1.3876 12.928 1.13333 13.2188 1.13333C13.5095 1.13333 13.7461 1.3876 13.7461 1.7V2.26667H12.6914V1.7ZM8.47266 1.7C8.47266 1.3876 8.70927 1.13333 9 1.13333C9.29073 1.13333 9.52734 1.3876 9.52734 1.7V2.26667H8.47266V1.7ZM4.78125 1.13333C5.07198 1.13333 5.30859 1.3876 5.30859 1.7V2.26667H4.25391V1.7C4.25391 1.3876 4.49052 1.13333 4.78125 1.13333ZM3.72656 3.4H14.2734C14.5731 3.4 14.8359 3.66474 14.8359 3.96667V4.53333H3.16406V3.96667C3.16406 3.66474 3.42691 3.4 3.72656 3.4ZM1.05469 9.06667V7.93333H2.10938V9.06667H1.05469ZM14.8359 15.3C14.8359 15.6019 14.5731 15.8667 14.2734 15.8667H10.0547C9.76396 15.8667 9.52734 15.6124 9.52734 15.3V14.1667C9.52734 13.8537 9.29128 13.6 9 13.6H3.72656C3.42691 13.6 3.16406 13.3353 3.16406 13.0333V12.4667H14.8359V15.3ZM16.9453 12.4667V13.6H15.8906V12.4667H16.9453ZM14.8359 11.3333H3.16406V5.66667H14.8359V9.06667H13.2188C12.928 9.06667 12.6914 8.8124 12.6914 8.5V7.36667C12.6914 7.05367 12.4553 6.8 12.1641 6.8C11.8728 6.8 11.6367 7.05367 11.6367 7.36667V8.5C11.6367 8.69863 11.6689 8.88929 11.7274 9.06667H11.1094C10.8186 9.06667 10.582 8.8124 10.582 8.5V7.36667C10.582 7.05367 10.346 6.8 10.0547 6.8C9.76341 6.8 9.52734 7.05367 9.52734 7.36667V8.5C9.52734 8.69863 9.55948 8.88929 9.61798 9.06667H9C8.70927 9.06667 8.47266 8.8124 8.47266 8.5V7.36667C8.47266 7.05367 8.23659 6.8 7.94531 6.8C7.65404 6.8 7.41797 7.05367 7.41797 7.36667V8.5C7.41797 8.69863 7.4501 8.88929 7.50861 9.06667H6.89062C6.5999 9.06667 6.36328 8.8124 6.36328 8.5V7.36667C6.36328 7.05367 6.12721 6.8 5.83594 6.8C5.54466 6.8 5.30859 7.05367 5.30859 7.36667V8.5C5.30859 9.43736 6.01831 10.2 6.89062 10.2H14.8359V11.3333Z" fill="black"/>
</svg>
