<svg width="22" height="22" viewBox="0 0 22 22" fill="none" xmlns="http://www.w3.org/2000/svg">
<path d="M18.7782 3.2218C16.7005 1.14421 13.9382 0 11 0C8.0618 0 5.29947 1.14421 3.2218 3.2218C1.14421 5.29947 0 8.0618 0 11C0 13.9382 1.14421 16.7005 3.2218 18.7782C5.29947 20.8558 8.0618 22 11 22C13.9382 22 16.7005 20.8558 18.7782 18.7782C20.8558 16.7005 22 13.9382 22 11C22 8.0618 20.8558 5.29947 18.7782 3.2218ZM17.8667 17.8667C16.0325 19.7008 13.5939 20.7109 11 20.7109C8.40611 20.7109 5.9675 19.7008 4.13334 17.8667C2.29917 16.0325 1.28906 13.5939 1.28906 11C1.28906 8.40611 2.29917 5.9675 4.13334 4.13334C5.9675 2.29917 8.40611 1.28906 11 1.28906C13.5939 1.28906 16.0325 2.29917 17.8667 4.13334C19.7008 5.9675 20.7109 8.40611 20.7109 11C20.7109 13.5939 19.7008 16.0325 17.8667 17.8667Z" fill="black"/>
<path d="M11 3.95312C7.11434 3.95312 3.95312 7.11434 3.95312 11C3.95312 14.8857 7.11434 18.0469 11 18.0469C14.8857 18.0469 18.0469 14.8857 18.0469 11C18.0469 7.11434 14.8857 3.95312 11 3.95312ZM16.2421 8.61906L12.9624 9.68468C12.654 9.22595 12.1889 8.88134 11.6446 8.72678V5.27845C13.6927 5.50769 15.4196 6.81536 16.2421 8.61906ZM9.92578 11C9.92578 10.4077 10.4077 9.92578 11 9.92578C11.5923 9.92578 12.0742 10.4077 12.0742 11C12.0742 11.5923 11.5923 12.0742 11 12.0742C10.4077 12.0742 9.92578 11.5923 9.92578 11ZM10.3555 5.27845V8.72678C9.81118 8.88134 9.34609 9.22595 9.03762 9.68468L5.75798 8.61906C6.58045 6.81536 8.30732 5.50769 10.3555 5.27845ZM5.24219 11C5.24219 10.6044 5.28232 10.2181 5.35868 9.8447L8.639 10.9105C8.63788 10.9403 8.63672 10.97 8.63672 11C8.63672 11.5504 8.82638 12.0571 9.14311 12.4592L7.11713 15.2477C5.96561 14.1942 5.24219 12.68 5.24219 11ZM8.15912 16.0067L10.185 13.2183C10.4392 13.312 10.7137 13.3633 11 13.3633C11.2863 13.3633 11.5608 13.312 11.815 13.2183L13.8409 16.0067C13.0021 16.4844 12.0324 16.7578 11 16.7578C9.96759 16.7578 8.99791 16.4844 8.15912 16.0067ZM14.8829 15.2477L12.8569 12.4592C13.1736 12.0571 13.3633 11.5504 13.3633 11C13.3633 10.97 13.3621 10.9403 13.361 10.9105L16.6413 9.8447C16.7177 10.2181 16.7578 10.6044 16.7578 11C16.7578 12.68 16.0344 14.1942 14.8829 15.2477Z" fill="black"/>
</svg>
